HIERARCHY
ROOT Hips
{
	OFFSET -3.958830 18.904000 13.208200
	CHANNELS 6 Xposition Yposition Zposition Zrotation Yrotation Xrotation 
	JOINT LHipJoint
	{
		OFFSET 0.000000 0.000000 0.000000
		CHANNELS 3 Zrotation Yrotation Xrotation
		JOINT LeftUpLeg
		{
			OFFSET 1.800000 -1.400000 0.085000
			CHANNELS 3 Zrotation Yrotation Xrotation
			JOINT LeftLeg
			{
				OFFSET 2.215000 -6.000000 0.000000
				CHANNELS 3 Zrotation Yrotation Xrotation
				JOINT LeftFoot
				{
					OFFSET 2.500000 -6.900000 0.000000
					CHANNELS 3 Zrotation Yrotation Xrotation
					JOINT LeftToeBase
					{
						OFFSET 0.200000 -0.500000 1.950000
						CHANNELS 3 Zrotation Yrotation Xrotation
						End Site
						{
							OFFSET 0.000000 0.000000 0.000000
						}
					}
				}
			}
		}
	}
	JOINT RHipJoint
	{
		OFFSET 0.000000 0.000000 0.000000
		CHANNELS 3 Zrotation Yrotation Xrotation
		JOINT RightUpLeg
		{
			OFFSET -1.800000 -1.400000 0.085000
			CHANNELS 3 Zrotation Yrotation Xrotation
			JOINT RightLeg
			{
				OFFSET -2.215000 -6.000000 0.000000
				CHANNELS 3 Zrotation Yrotation Xrotation
				JOINT RightFoot
				{
					OFFSET -2.500000 -6.900000 0.000000
					CHANNELS 3 Zrotation Yrotation Xrotation
					JOINT RightToeBase
					{
						OFFSET -0.200000 -0.500000 1.950000
						CHANNELS 3 Zrotation Yrotation Xrotation
						End Site
						{
							OFFSET 0.000000 0.000000 0.000000
						}
					}
				}
			}
		}
	}
	JOINT LowerBack
	{
		OFFSET 0.000000 0.000000 0.000000
		CHANNELS 3 Zrotation Yrotation Xrotation
		JOINT Spine
		{
			OFFSET -0.087000 1.940000 -0.288900
			CHANNELS 3 Zrotation Yrotation Xrotation
			JOINT Spine1
			{
				OFFSET 0.000000 1.950000 0.060000
				CHANNELS 3 Zrotation Yrotation Xrotation
				JOINT Neck
				{
					OFFSET 0.000000 0.000000 0.000000
					CHANNELS 3 Zrotation Yrotation Xrotation
					JOINT Neck1
					{
						OFFSET 0.000000 1.600000 0.340000
						CHANNELS 3 Zrotation Yrotation Xrotation
						JOINT Head
						{
							OFFSET 0.000000 1.667000 -0.240000
							CHANNELS 3 Zrotation Yrotation Xrotation
							End Site
							{
								OFFSET 0.000000 0.000000 0.000000
							}
						}
					}
				}
				JOINT LeftShoulder
				{
					OFFSET 0.000000 0.000000 0.000000
					CHANNELS 3 Zrotation Yrotation Xrotation
					JOINT LeftArm
					{
						OFFSET 2.700000 1.550000 -0.730000
						CHANNELS 3 Zrotation Yrotation Xrotation
						JOINT LeftForeArm
						{
							OFFSET 5.450000 0.000000 0.000000
							CHANNELS 3 Zrotation Yrotation Xrotation
							JOINT LeftHand
							{
								OFFSET 3.450000 0.000000 0.000000
								CHANNELS 3 Zrotation Yrotation Xrotation
								JOINT LeftHandIndex1
								{
									OFFSET 0.750000 0.000000 0.000000
									CHANNELS 3 Zrotation Yrotation Xrotation
									End Site
									{
										OFFSET 0.000000 0.000000 0.000000
									}
								}
							}
						}
					}
				}
				JOINT RightShoulder
				{
					OFFSET 0.000000 0.000000 0.000000
					CHANNELS 3 Zrotation Yrotation Xrotation
					JOINT RightArm
					{
						OFFSET -2.700000 1.550000 -0.730000
						CHANNELS 3 Zrotation Yrotation Xrotation
						JOINT RightForeArm
						{
							OFFSET -5.450000 0.000000 0.000000
							CHANNELS 3 Zrotation Yrotation Xrotation
							JOINT RightHand
							{
								OFFSET -3.450000 0.000000 0.000000
								CHANNELS 3 Zrotation Yrotation Xrotation
								JOINT RightHandIndex1
								{
									OFFSET -0.750000 0.000000 0.000000
									CHANNELS 3 Zrotation Yrotation Xrotation
									End Site
									{
										OFFSET 0.000000 0.000000 0.000000
									}
								}
							}
						}
					}
				}
			}
		}
	}
}
MOTION
Frames: 7
Frame Time: 0.016667
-1.261270 17.728360 1.773520 -76.621701 59.943646 -94.507579 -15.082383 11.646582 1.493001 25.329836 -0.644678 2.685052 -3.427215 6.256129 5.106051 -0.079956 6.273072 2.705389 0.004490 -0.349270 -0.122330 19.137329 -5.357593 7.476399 -44.418327 4.267607 -52.049956 84.494855 -9.717360 6.700070 -1.836587 -8.214325 1.536901 -0.216710 0.586040 0.281960 -4.616731 -0.286961 -10.645805 42.031982 -13.494382 27.648118 -9.343669 -2.745913 15.542683 3.544747 -0.644871 -19.175403 -2.863797 -14.235787 41.365284 7.296820 -20.404850 -17.786610 -5.788295 -34.256636 13.388895 -16.186873 1.501286 -10.085548 18.626890 -43.507500 -8.048896 -3.224671 2.906615 0.724710 0.016390 0.013240 0.209830 -1.846455 38.167114 8.917456 19.896406 31.220022 -20.157248 -2.113083 61.759965 -5.806369 1.384003 -1.376617 -0.311630 0.504940 0.306310 0.065020 
-1.268330 17.722950 1.676660 -62.945176 58.124047 -78.801245 -15.367885 11.598727 1.176897 24.456522 -0.380823 2.413656 -2.860271 6.275067 7.168140 -0.055925 6.042521 2.761807 0.176010 -0.086920 -0.163450 18.903497 -5.420687 7.454501 -45.932587 6.378958 -52.736566 77.149472 -6.069367 5.153033 -1.703118 -7.757789 1.644667 -0.088280 0.570960 0.334160 -5.325794 0.853166 -10.667101 43.880364 -12.696034 26.368585 -11.005524 -1.461445 18.400103 3.932860 -1.538080 -18.523394 -3.602801 -14.803823 38.023840 10.018150 -21.380540 -20.008530 -5.462116 -32.794726 12.722150 -16.035919 -0.337184 -8.677928 20.323984 -37.575606 -7.437105 -3.231984 3.059622 0.626430 0.006850 0.039160 0.331790 -2.245308 38.011225 9.023277 18.577776 32.755070 -20.775290 -6.056069 57.527122 -7.209690 1.355806 -1.526239 -0.183800 0.436680 0.199920 0.166160 
-1.268160 17.702150 1.619760 -51.690530 55.003029 -65.762014 -15.613541 11.299987 0.780559 23.825289 -0.059352 2.523076 -2.786431 6.572041 9.926987 -0.018014 5.952316 2.763283 0.252410 0.045870 -0.226000 18.750758 -5.457275 7.762369 -50.963729 6.722089 -54.499389 73.395274 -1.147098 1.490811 -1.566165 -7.281738 1.770481 -0.029780 0.591220 0.384280 -5.936707 1.390961 -10.789530 43.866317 -11.912965 25.580791 -11.494146 -0.705431 21.302317 4.055367 -2.881667 -19.137862 -5.163129 -13.610666 36.494083 11.771500 -21.269480 -19.708740 -4.746598 -32.251304 12.955381 -15.834376 -0.585609 -6.723250 20.651881 -29.727686 -5.983348 -3.317383 3.236329 0.519450 0.025780 0.025110 0.394190 -2.441589 38.936031 9.002328 15.092987 36.004807 -19.795728 -12.947063 48.370311 -7.870367 1.490903 -1.514953 -0.084330 0.367360 0.164830 0.249790 
-1.253150 17.686680 1.544160 -45.095738 50.942340 -59.253317 -15.619034 11.183632 0.554055 24.200263 0.392339 4.032069 -2.442679 7.178464 13.088217 0.030870 6.127732 2.716836 0.281980 0.099550 -0.234950 18.756170 -5.574036 8.038736 -53.721342 7.819164 -51.766056 68.306827 4.600540 -4.188362 -1.458084 -6.712891 1.950924 -0.001610 0.592620 0.326130 -5.948865 0.937263 -10.786359 43.651671 -12.431827 26.925739 -11.460225 -1.256628 23.695961 4.848454 -4.751854 -20.508542 -8.474180 -11.274137 37.956517 13.825140 -20.624440 -20.653690 -4.782787 -32.798300 14.108747 -16.659418 0.305412 -4.999404 21.225666 -21.569845 -4.783451 -3.345328 3.274516 0.536460 -0.021000 0.034350 0.431630 -3.204287 41.137586 8.003731 9.523981 36.919777 -17.614420 -16.136365 37.117692 -6.240163 1.850961 -1.394677 -0.099570 0.416300 0.128430 0.272350 
-1.214920 17.613590 1.439040 -40.386612 46.570089 -53.897537 -15.525845 11.298923 0.444961 23.582660 0.586029 4.848502 -1.147135 7.288757 15.979070 0.076283 6.088810 2.704972 0.373670 0.186380 -0.132440 18.803385 -6.019367 8.006425 -54.206667 8.154553 -51.016276 63.394537 3.773689 -3.529253 -1.448979 -6.646816 1.926681 0.010510 0.486550 0.354200 -5.903305 0.612870 -10.480332 44.399000 -13.709300 27.387550 -13.290394 -1.623559 24.018921 5.496656 -5.218215 -21.000490 -9.929053 -9.672019 38.611616 12.985150 -19.075660 -21.076520 -5.026566 -32.509484 15.418639 -15.867836 1.855121 -2.117692 16.678229 -13.489587 -2.450577 -3.360845 3.278237 0.570200 -0.082690 0.116440 0.443120 -4.339952 40.881216 7.901990 9.710423 36.975155 -16.540625 -16.338273 35.379947 -5.886673 1.888136 -1.437871 -0.039390 0.343840 0.042850 0.259300 
-1.157810 17.516310 1.320760 -38.953964 42.537442 -51.591786 -15.411189 11.708875 0.446571 23.900510 0.605730 4.167621 0.928438 7.396203 20.237037 0.002102 6.264125 2.613861 0.378240 0.163000 -0.044720 18.801266 -6.569646 7.715792 -51.878659 8.437464 -50.717428 56.850960 0.322917 0.176350 -1.357041 -6.548351 1.910666 0.009100 0.433010 0.350700 -5.646316 0.096605 -10.040757 45.887485 -16.035877 27.899817 -15.158209 -2.754667 23.600301 6.518254 -5.184952 -21.144068 -10.318975 -8.478371 38.105889 10.355780 -16.817840 -22.447660 -6.392212 -32.353479 16.698787 -14.941636 4.294029 0.107300 11.986838 -6.589589 -1.104888 -3.433817 3.100880 0.663040 -0.108790 0.164700 0.401750 -5.428131 40.357455 7.407084 10.124183 36.858981 -15.371648 -19.694362 32.523272 -6.544281 1.926058 -1.366596 -0.086040 0.368800 0.045150 0.191000 
-1.110560 17.371400 1.230020 -36.084023 39.445124 -48.768478 -15.314082 12.256067 0.514411 22.495942 1.211018 3.711570 3.459301 7.169236 23.935816 -0.078909 6.384968 2.582691 0.343160 0.073790 -0.001490 18.745015 -7.487745 7.073259 -48.648316 8.989145 -52.223998 47.661433 -8.499862 13.776677 -1.208129 -6.914812 1.763663 -0.008610 0.444710 0.321950 -5.529460 -0.012846 -9.500794 45.966823 -16.883493 28.744795 -16.750361 -3.129807 23.771657 7.391600 -5.930663 -21.433992 -11.837265 -7.325826 37.235673 8.610340 -15.715230 -22.496580 -6.917994 -31.741565 17.087489 -14.945289 6.536087 0.448514 11.933996 -4.717142 -0.958427 -3.474142 3.001853 0.733210 -0.108310 0.145330 0.367020 -6.677500 40.370866 7.255619 8.468055 35.723399 -14.356031 -21.363936 27.951945 -6.243297 2.018175 -1.331929 -0.170720 0.422420 0.078750 0.129510 
